# xmcd
#
# Track frame offsets:
#	150
#	20263
#	36826
#	55445
#	76789
#	95110
#	119001
#	137060
#	151925
#	169972
#	189244
#	203210
#	216315
#	225848
#	242682
#	260300
#	278908
#	299134
#	319297
#	336057
#
# Disc length: 4656 seconds
#
# Revision: 1
# Processed by: cddbd v1.5.2PL0 Copyright (c) Steve Scherf et al.
# Submitted via: EasyCDDAExtractor 16.1.0.1
#
DISCID=28122e14
DTITLE=Huey Lewis and The News - Collected 2/3
DYEAR=2017
DGENRE=
TTITLE0=Huey Lewis and The News - Simple As That
TTITLE1=Huey Lewis and The News - Doing It All For My Baby
TTITLE2=Huey Lewis and The News - Perfect World
TTITLE3=Huey Lewis and The News - Small World [Single]
TTITLE4=Huey Lewis and The News - Give Me The Keys (And I'll Drive You Crazy) [S
TTITLE4=ingle]
TTITLE5=Huey Lewis and The News - World To Me
TTITLE6=Huey Lewis and The News - Walking With The Kid
TTITLE7=Huey Lewis and The News - Couple Days Off [Short Edit]
TTITLE8=Huey Lewis and The News - It Hit Me Like A Hammer [Sax Single Remix]
TTITLE9=Huey Lewis and The News - He Don't Know
TTITLE10=Huey Lewis and The News - (She's) Some Kind Of Wonderful
TTITLE11=Huey Lewis and The News - But It's Alright
TTITLE12=Huey Lewis and The News - Little Bitty Pretty One
TTITLE13=Huey Lewis and The News - 100 Years From Now
TTITLE14=Huey Lewis and The News - We're Not Here For A Long Time (We're Here Fo
TTITLE14=r A Good Time)
TTITLE15=Huey Lewis and The News - Let Her Go And Start Over [Radio Edit]
TTITLE16=Huey Lewis and The News with Wynonna Judd - I'm Not In Love Yet
TTITLE17=Huey Lewis and The News - Pineapple Express
TTITLE18=Huey Lewis and The News - Respect Yourself
TTITLE19=Huey Lewis and The News - Just The One (I've Been Looking For)
EXTD=
EXTT0=
EXTT1=
EXTT2=
EXTT3=
EXTT4=
EXTT5=
EXTT6=
EXTT7=
EXTT8=
EXTT9=
EXTT10=
EXTT11=
EXTT12=
EXTT13=
EXTT14=
EXTT15=
EXTT16=
EXTT17=
EXTT18=
EXTT19=
PLAYORDER=
